<svg xmlns="http://www.w3.org/2000/svg" viewBox="-70 -70 140 140" width="512" height="512">
  <circle r="64" fill="#4A0020"/>
  <circle r="64" fill="none" stroke="#EC4899" stroke-width="3.5"/>
  <line x1="8" y1="-38" x2="14" y2="-50" stroke="#F9A8D4" stroke-width="3"/>
  <circle cx="15" cy="-53" r="5" fill="#EC4899"/>
  <circle cx="15" cy="-53" r="2.5" fill="white"/>
  <rect x="-19" y="22" width="38" height="24" rx="8" fill="#FBCFE8"/>
  <ellipse cx="0" cy="34" rx="12" ry="9" fill="white" opacity="0.9"/>
  <circle cx="-6" cy="31" r="3" fill="#EF4444"/>
  <circle cx="2" cy="28" r="3" fill="#F59E0B"/>
  <circle cx="8" cy="32" r="3" fill="#3B82F6"/>
  <circle cx="2" cy="38" r="3" fill="#22C55E"/>
  <rect x="-35" y="24" width="17" height="9" rx="5" fill="#F9A8D4"/>
  <ellipse cx="-35" cy="28" rx="6" ry="6" fill="#FBCFE8"/>
  <rect x="18" y="24" width="17" height="9" rx="5" fill="#F9A8D4"/>
  <ellipse cx="35" cy="28" rx="6" ry="6" fill="#FBCFE8"/>
  <line x1="38" y1="23" x2="44" y2="15" stroke="#EC4899" stroke-width="3" stroke-linecap="round"/>
  <circle cx="44" cy="14" r="2.5" fill="white"/>
  <rect x="-8" y="14" width="16" height="10" rx="4" fill="#F9A8D4"/>
  <rect x="-28" y="-38" width="56" height="54" rx="14" fill="#FCE7F3"/>
  <rect x="-36" y="-18" width="9" height="13" rx="4" fill="#F9A8D4"/>
  <rect x="27" y="-18" width="9" height="13" rx="4" fill="#F9A8D4"/>
  <ellipse cx="-11" cy="-14" rx="12" ry="12" fill="#4A0020"/>
  <ellipse cx="11" cy="-14" rx="12" ry="12" fill="#4A0020"/>
  <ellipse cx="-11" cy="-14" rx="8" ry="8" fill="#EC4899"/>
  <ellipse cx="11" cy="-14" rx="8" ry="8" fill="#EC4899"/>
  <ellipse cx="-8" cy="-18" rx="3.5" ry="3.5" fill="white"/>
  <ellipse cx="14" cy="-18" rx="3.5" ry="3.5" fill="white"/>
  <ellipse cx="-21" cy="-5" rx="5" ry="3" fill="#F472B6" opacity="0.35"/>
  <ellipse cx="21" cy="-5" rx="5" ry="3" fill="#F472B6" opacity="0.35"/>
  <circle cx="0" cy="-4" r="2.5" fill="#F9A8D4"/>
  <path d="M-10,4 Q0,14 10,4" fill="none" stroke="#BE185D" stroke-width="2.5" stroke-linecap="round"/>
</svg>