<svg xmlns="http://www.w3.org/2000/svg" viewBox="-70 -70 140 140" width="512" height="512">
  <circle r="64" fill="#3B0764"/>
  <circle r="64" fill="none" stroke="#7C3AED" stroke-width="3.5"/>
  <circle r="55" fill="none" stroke="#6D28D9" stroke-width="6" opacity="0.35"/>
  <rect x="-21" y="20" width="42" height="26" rx="9" fill="#DDD6FE"/>
  <polygon points="0,25 3,33 11,33 5,38 7,46 0,41 -7,46 -5,38 -11,33 -3,33" fill="#F59E0B"/>
  <rect x="-37" y="22" width="17" height="9" rx="5" fill="#C4B5FD"/>
  <ellipse cx="-37" cy="26" rx="6" ry="6" fill="#DDD6FE"/>
  <rect x="20" y="22" width="17" height="9" rx="5" fill="#C4B5FD"/>
  <ellipse cx="37" cy="26" rx="6" ry="6" fill="#DDD6FE"/>
  <rect x="-9" y="12" width="18" height="10" rx="4" fill="#C4B5FD"/>
  <rect x="-30" y="-42" width="60" height="56" rx="15" fill="#EDE9FE"/>
  <rect x="-38" y="-20" width="10" height="14" rx="5" fill="#C4B5FD"/>
  <rect x="28" y="-20" width="10" height="14" rx="5" fill="#C4B5FD"/>
  <circle cx="-37" cy="-10" r="3" fill="#F59E0B"/>
  <circle cx="37" cy="-10" r="3" fill="#F59E0B"/>
  <ellipse cx="-12" cy="-16" rx="13" ry="13" fill="#2E1065"/>
  <ellipse cx="12" cy="-16" rx="13" ry="13" fill="#2E1065"/>
  <ellipse cx="-12" cy="-16" rx="9" ry="9" fill="#A855F7"/>
  <ellipse cx="12" cy="-16" rx="9" ry="9" fill="#A855F7"/>
  <polygon points="-12,-11 -11,-15 -12,-19 -13,-15" fill="#2E1065"/>
  <polygon points="-8,-16 -12,-15 -16,-16 -12,-17" fill="#2E1065"/>
  <polygon points="-10,-13 -12,-15 -14,-13 -12,-11" fill="#2E1065"/>
  <polygon points="-10,-19 -12,-17 -14,-19 -12,-21" fill="#2E1065"/>
  <polygon points="12,-11 13,-15 12,-19 11,-15" fill="#2E1065"/>
  <polygon points="16,-16 12,-15 8,-16 12,-17" fill="#2E1065"/>
  <polygon points="14,-13 12,-15 10,-13 12,-11" fill="#2E1065"/>
  <polygon points="14,-19 12,-17 10,-19 12,-21" fill="#2E1065"/>
  <ellipse cx="-8" cy="-20" rx="3.5" ry="3.5" fill="white"/>
  <ellipse cx="16" cy="-20" rx="3.5" ry="3.5" fill="white"/>
  <ellipse cx="-23" cy="-6" rx="6" ry="4" fill="#C084FC" opacity="0.4"/>
  <ellipse cx="23" cy="-6" rx="6" ry="4" fill="#C084FC" opacity="0.4"/>
  <circle cx="0" cy="-5" r="3" fill="#C4B5FD"/>
  <path d="M-11,3 Q0,14 11,3" fill="none" stroke="#7C3AED" stroke-width="3" stroke-linecap="round"/>
  <line x1="0" y1="-42" x2="0" y2="-53" stroke="#C4B5FD" stroke-width="3"/>
  <polygon points="0,-60 2,-54 8,-54 3,-50 5,-44 0,-48 -5,-44 -3,-50 -8,-54 -2,-54" fill="#F59E0B"/>
</svg>