<svg xmlns="http://www.w3.org/2000/svg" viewBox="-70 -70 140 140" width="512" height="512">
  <circle r="64" fill="#431407"/>
  <circle r="64" fill="none" stroke="#F97316" stroke-width="3.5"/>
  <line x1="0" y1="-38" x2="0" y2="-50" stroke="#FDBA74" stroke-width="3"/>
  <rect x="-5" y="-58" width="10" height="10" rx="2" fill="#F97316"/>
  <rect x="-3" y="-62" width="6" height="5" rx="1" fill="#F97316"/>
  <rect x="-19" y="22" width="38" height="24" rx="8" fill="#FED7AA"/>
  <circle cx="0" cy="34" r="10" fill="#F97316"/>
  <circle cx="0" cy="34" r="5" fill="#431407"/>
  <rect x="-2" y="22" width="4" height="7" rx="1" fill="#F97316"/>
  <rect x="-2" y="39" width="4" height="7" rx="1" fill="#F97316"/>
  <rect x="18" y="32" width="7" height="4" rx="1" fill="#F97316"/>
  <rect x="-25" y="32" width="7" height="4" rx="1" fill="#F97316"/>
  <rect x="-19" y="43" width="38" height="5" rx="2" fill="#92400E"/>
  <rect x="-35" y="24" width="17" height="9" rx="5" fill="#FDBA74"/>
  <ellipse cx="-35" cy="28" rx="6" ry="6" fill="#FED7AA"/>
  <rect x="18" y="24" width="17" height="9" rx="5" fill="#FDBA74"/>
  <ellipse cx="35" cy="28" rx="6" ry="6" fill="#FED7AA"/>
  <rect x="39" y="18" width="8" height="4" rx="2" fill="#F97316"/>
  <rect x="39" y="24" width="8" height="4" rx="2" fill="#F97316"/>
  <rect x="41" y="18" width="4" height="10" rx="1" fill="#F97316"/>
  <rect x="-8" y="14" width="16" height="10" rx="4" fill="#FDBA74"/>
  <rect x="-28" y="-38" width="56" height="54" rx="14" fill="#FEF3C7"/>
  <rect x="-28" y="-38" width="56" height="15" rx="10" fill="#92400E"/>
  <rect x="-36" y="-18" width="9" height="13" rx="4" fill="#FDBA74"/>
  <rect x="27" y="-18" width="9" height="13" rx="4" fill="#FDBA74"/>
  <ellipse cx="-11" cy="-14" rx="11" ry="11" fill="#431407"/>
  <ellipse cx="11" cy="-14" rx="11" ry="11" fill="#431407"/>
  <ellipse cx="-11" cy="-14" rx="7" ry="7" fill="#F97316"/>
  <ellipse cx="11" cy="-14" rx="7" ry="7" fill="#F97316"/>
  <ellipse cx="-8" cy="-17" rx="3" ry="3" fill="white"/>
  <ellipse cx="14" cy="-17" rx="3" ry="3" fill="white"/>
  <circle cx="0" cy="-4" r="2.5" fill="#FDBA74"/>
  <line x1="-9" y1="5" x2="9" y2="5" stroke="#92400E" stroke-width="3" stroke-linecap="round"/>
</svg>